<?xml version="1.0" encoding="UTF-8"?>
<svg id="Warstwa_1" data-name="Warstwa 1" xmlns="http://www.w3.org/2000/svg" viewBox="0 0 76 76">
  <defs>
    <style>
      .cls-1 {
        fill: #cfa55c;
      }

      .cls-1, .cls-2 {
        fill-rule: evenodd;
      }

      .cls-2 {
        fill: #192b85;
      }
    </style>
  </defs>
  <path class="cls-1" d="m9.65,34.55c6.23-1.21,9.3-.65,9.53,4.84,5.91-3.63,8.36,3.42,6.48,5.06-3.45-2.79-5.32-.1-3.17,3.34,1.38,1.89,3.14,2.66,5.46,2.6,2.22-.2,4.12-1.08,5.44-2.91,2.4-3.9-2.48-8.19-3.52-3.41-5.17-2.61-3.46-10.51,4.05-9.17-2.23-5.43-.6-11.05,4.08-14.86,4.68,3.81,6.3,9.42,4.08,14.86,7.51-1.34,9.22,6.56,4.05,9.17-1.04-4.78-5.92-.49-3.52,3.41,1.32,1.83,3.22,2.72,5.44,2.91,2.32.06,4.08-.71,5.46-2.6,2.13-3.41.21-6.23-3.17-3.34-1.85-1.58.69-8.61,6.48-5.06.24-5.49,3.3-6.05,9.53-4.84-6.92,11.05-10.55,21.65-13.14,34.3l-15.21-25.48v.62-.62c-5.33,5.46-11.62,17.9-15.27,25.4-2.29-10.91-6.98-24.48-13.08-34.22Z"/>
  <path class="cls-2" d="m38,0c20.93,0,38,17.07,38,38s-17.07,38-38,38v-32.01c-5.32,5.01-11.07,16.85-12.82,26.97,2.94,2.4,6.1,4.13,9.38,4.88C15.23,74.09,0,57.77,0,38,0,21.62,10.46,7.6,25.04,2.28l6.57,2.32-3.12,2.15h9.49V2.18h-12.65c3.97-1.41,8.23-2.18,12.67-2.18Zm15.21,68.85c9.31-9.18,15.85-24.78,16.06-34.17h-2.59v-8.63h2.59l-8.85-10.95-8.85,10.95h2.59v8.63h-7.81v-12.66h3.46l-11.81-14.61-11.81,14.61h3.46v12.66h-7.81v-8.63h2.59l-8.85-10.95-8.85,10.95h2.59v8.63h-2.59c-.04,9.39,6.59,24.9,16,34.09,2.79-10.04,9.31-20.88,15.27-25.4,7.14,5.15,12.92,17.33,15.21,25.48Z"/>
</svg>